# xmcd CD database file
#
# Track frame offsets:
#	150
#	21945
#	39305
#	59007
#	78212
#	99142
#	119975
#	137395
#	156517
#	180840
#	198600
#
# Disc length: 2949 seconds
#
# Revision: 0
# Processed by: cddbd v1.5PL3 Copyright (c) Steve Scherf et al.
# Submitted via: CDex 1.51
#
DISCID=8e0b830b
DTITLE=横須賀ゆめな - Yumena
DYEAR=2001
DGENRE=
TTITLE0=誰か助けて
TTITLE1=残酷な太陽
TTITLE2=PiPiPiメロディー(アルバム・ヴァージョン)
TTITLE3=飛べない鳥
TTITLE4=終身の海
TTITLE5=偽り(アルバム・ヴァージョン)
TTITLE6=じゃれ猫
TTITLE7=you and you
TTITLE8=KAMEN-仮面-(アルバム・ヴァージョン)
TTITLE9=With deadly speed(アルバム・ヴァージョン)
TTITLE10=ゆりかご
EXTD=YEAR: 2001
EXTT0=
EXTT1=
EXTT2=
EXTT3=
EXTT4=
EXTT5=
EXTT6=
EXTT7=
EXTT8=
EXTT9=
EXTT10=
PLAYORDER=
